<?xml version="1.0" encoding="utf-8"?>
<!-- Generator: Adobe Illustrator 24.2.3, SVG Export Plug-In . SVG Version: 6.00 Build 0)  -->
<svg version="1.1" id="Layer_1" xmlns="http://www.w3.org/2000/svg" xmlns:xlink="http://www.w3.org/1999/xlink" x="0px" y="0px"
	 viewBox="0 0 174.87 189.17" style="enable-background:new 0 0 174.87 189.17;" xml:space="preserve">
<style type="text/css">
	.st0{fill:none;}
	.st1{fill:#F24C4C;}
</style>
<g>
	
		<ellipse transform="matrix(0.3827 -0.9239 0.9239 0.3827 -30.5689 108.3266)" class="st0" cx="65.78" cy="77.04" rx="5.53" ry="5.53"/>
	<rect x="79.54" y="124.02" class="st0" width="32" height="7.32"/>
	
		<ellipse transform="matrix(0.3827 -0.9239 0.9239 0.3827 -53.9607 123.9566)" class="st0" cx="65.78" cy="102.36" rx="5.53" ry="5.53"/>
	
		<ellipse transform="matrix(0.3827 -0.9239 0.9239 0.3827 -77.3526 139.5865)" class="st0" cx="65.78" cy="127.68" rx="5.53" ry="5.53"/>
	<rect x="79.54" y="73.7" class="st0" width="32" height="7.32"/>
	<rect x="79.54" y="99.57" class="st0" width="32" height="7.32"/>
	<path class="st0" d="M84.91,22.28c-4.93,0-8.95,4.01-8.95,8.95c0,1.62,0.44,3.13,1.19,4.45h15.5c0.76-1.31,1.19-2.83,1.19-4.45
		C93.85,26.3,89.84,22.28,84.91,22.28z"/>
	<path class="st1" d="M84.91,40.17c3.31,0,6.21-1.82,7.75-4.5h-15.5C78.7,38.36,81.59,40.17,84.91,40.17z"/>
	<path class="st1" d="M118.04,35.67H106.4c-2.06,9.98-10.91,17.5-21.49,17.5s-19.43-7.52-21.49-17.5H51.78
		c-12.64,0-22.89,10.25-22.89,22.89v86.75c0,12.64,10.25,22.89,22.89,22.89h66.27c12.64,0,22.89-10.25,22.89-22.89V58.56
		C140.93,45.92,130.68,35.67,118.04,35.67z M65.78,133.21c-3.06,0-5.53-2.48-5.53-5.53c0-3.06,2.48-5.53,5.53-5.53
		c3.06,0,5.53,2.48,5.53,5.53C71.31,130.73,68.83,133.21,65.78,133.21z M65.78,107.89c-3.06,0-5.53-2.48-5.53-5.53
		s2.48-5.53,5.53-5.53c3.06,0,5.53,2.48,5.53,5.53S68.83,107.89,65.78,107.89z M65.78,82.57c-3.06,0-5.53-2.48-5.53-5.53
		s2.48-5.53,5.53-5.53c3.06,0,5.53,2.48,5.53,5.53S68.83,82.57,65.78,82.57z M111.54,131.34h-32v-7.32h32V131.34z M111.54,106.89
		h-32v-7.32h32V106.89z M111.54,81.02h-32V73.7h32V81.02z"/>
	<path class="st1" d="M75.96,31.23c0-4.93,4.01-8.95,8.95-8.95s8.95,4.01,8.95,8.95c0,1.62-0.44,3.13-1.19,4.45h13.74
		c0.3-1.44,0.45-2.92,0.45-4.45c0-12.1-9.84-21.95-21.95-21.95s-21.95,9.84-21.95,21.95c0,1.52,0.16,3.01,0.45,4.45h13.74
		C76.4,34.36,75.96,32.85,75.96,31.23z"/>
	<path class="st1" d="M84.91,53.17c10.58,0,19.43-7.52,21.49-17.5H92.66c-1.55,2.68-4.44,4.5-7.75,4.5s-6.21-1.82-7.75-4.5H63.42
		C65.48,45.65,74.33,53.17,84.91,53.17z"/>
</g>
</svg>
